<svg width="20" height="20" viewBox="0 0 20 20" fill="none" xmlns="http://www.w3.org/2000/svg">
<g clip-path="url(#clip0_7_62)">
<path d="M17.9611 3.33334C17.8854 3.32553 17.8091 3.32553 17.7334 3.33334H2.17781C2.07811 3.33487 1.97907 3.34982 1.88336 3.37778L9.91114 11.3722L17.9611 3.33334Z" fill="#FF6DA3"/>
<path d="M18.7833 4.10553L10.6944 12.1611C10.4862 12.368 10.2046 12.4842 9.91109 12.4842C9.61755 12.4842 9.33594 12.368 9.12776 12.1611L1.11109 4.16664C1.08645 4.25722 1.07338 4.35056 1.0722 4.44442V15.5555C1.0722 15.8502 1.18927 16.1328 1.39764 16.3412C1.60602 16.5496 1.88863 16.6666 2.18332 16.6666H17.7389C18.0336 16.6666 18.3162 16.5496 18.5245 16.3412C18.7329 16.1328 18.85 15.8502 18.85 15.5555V4.44442C18.8456 4.32867 18.8231 4.21433 18.7833 4.10553ZM2.94443 15.5555H2.1722V14.7611L6.21109 10.7555L6.99443 11.5389L2.94443 15.5555ZM17.7278 15.5555H16.95L12.9 11.5389L13.6833 10.7555L17.7222 14.7611L17.7278 15.5555Z" fill="#FF6DA3"/>
</g>
<defs>
<clipPath id="clip0_7_62">
<rect width="20" height="20" fill="white"/>
</clipPath>
</defs>
</svg>
