<svg width="50" height="50" viewBox="0 0 50 50" fill="none" xmlns="http://www.w3.org/2000/svg">
<path d="M38.5417 18.75H34.375M34.375 18.75H30.2084M34.375 18.75V14.5833M34.375 18.75V22.9167" stroke="#FF5494" stroke-width="1.5" stroke-linecap="round"/>
<path d="M25 11.6125L23.8584 12.6792C24.0045 12.8356 24.1813 12.9603 24.3777 13.0456C24.5741 13.1309 24.7859 13.1749 25 13.1749C25.2141 13.1749 25.426 13.1309 25.6223 13.0456C25.8187 12.9603 25.9955 12.8356 26.1417 12.6792L25 11.6125ZM5.52502 28.5042C5.6281 28.6858 5.76654 28.8449 5.93217 28.9721C6.0978 29.0993 6.28725 29.1921 6.48932 29.2448C6.69139 29.2976 6.90199 29.3093 7.10866 29.2792C7.31533 29.2492 7.51388 29.178 7.69258 29.0699C7.87128 28.9619 8.0265 28.819 8.14906 28.6499C8.27162 28.4809 8.35904 28.2889 8.40616 28.0854C8.45327 27.882 8.45912 27.6711 8.42335 27.4654C8.38759 27.2596 8.31094 27.0631 8.19794 26.8875L5.52502 28.5042ZM13.6188 33.6896C13.4776 33.5348 13.3067 33.41 13.1164 33.3226C12.926 33.2352 12.7199 33.1869 12.5105 33.1807C12.3011 33.1745 12.0926 33.2105 11.8974 33.2865C11.7022 33.3625 11.5243 33.477 11.3742 33.6232C11.2241 33.7694 11.105 33.9442 11.0238 34.1374C10.9427 34.3305 10.9012 34.538 10.9019 34.7475C10.9025 34.957 10.9453 35.1642 11.0277 35.3568C11.11 35.5494 11.2303 35.7235 11.3813 35.8687L13.6188 33.6896ZM5.72919 19.4125C5.72919 13.3604 8.37085 9.62083 11.6375 8.33958C14.8979 7.0625 19.4584 7.975 23.8584 12.6792L26.1417 10.5458C21.1667 5.225 15.3104 3.54584 10.4979 5.42917C5.69169 7.3125 2.60419 12.4833 2.60419 19.4125H5.72919ZM32.3125 41.5833C35.4229 39.0604 39.1479 35.6792 42.1104 31.9021C45.0417 28.1646 47.3959 23.8208 47.3959 19.4083H44.2709C44.2709 22.7667 42.4375 26.4167 39.65 29.9729C36.8917 33.4917 33.3667 36.7062 30.3459 39.1562L32.3125 41.5833ZM47.3959 19.4083C47.3959 12.4813 44.3084 7.31042 39.5 5.42917C34.6875 3.54375 28.8334 5.22083 23.8584 10.5438L26.1417 12.6792C30.5417 7.975 35.1021 7.06042 38.3625 8.3375C41.6292 9.61667 44.2709 13.3583 44.2709 19.4083H47.3959ZM17.6875 41.5854C20.3334 43.7354 22.1709 45.3125 25 45.3125V42.1875C23.4938 42.1875 22.5563 41.5125 19.6542 39.1583L17.6875 41.5854ZM30.3459 39.1562C27.4438 41.5104 26.5063 42.1875 25 42.1875V45.3125C27.8292 45.3125 29.6688 43.7354 32.3146 41.5854L30.3459 39.1562ZM8.20002 26.8875C6.6396 24.3125 5.72919 21.7813 5.72919 19.4125H2.60419C2.60419 22.5625 3.80419 25.6625 5.52502 28.5042L8.20002 26.8875ZM19.6542 39.1583C17.5392 37.4527 15.524 35.6267 13.6188 33.6896L11.3813 35.8687C13.3696 37.8954 15.4766 39.8042 17.6875 41.5854L19.6542 39.1583Z" fill="#FF5494"/>
</svg>
