<svg width="24" height="24" viewBox="0 0 24 24" fill="none" xmlns="http://www.w3.org/2000/svg">
<path d="M9.27199 2.406C9.3508 2.22879 9.37637 2.0325 9.3456 1.84102C9.31483 1.64954 9.22905 1.47113 9.0987 1.32754C8.96835 1.18394 8.79906 1.08134 8.61144 1.03224C8.42382 0.983144 8.22597 0.989659 8.04199 1.051C6.58999 1.535 5.43199 2.488 4.36999 3.55C3.30239 4.60967 2.45506 5.87015 1.87684 7.25879C1.29861 8.64743 1.00092 10.1368 1.00092 11.641C1.00092 13.1452 1.29861 14.6346 1.87684 16.0232C2.45506 17.4118 3.30239 18.6723 4.36999 19.732C8.88799 24.251 15.88 23.993 20.346 19.527C21.408 18.465 22.36 17.307 22.844 15.854C22.9034 15.6754 22.9111 15.4836 22.8664 15.3008C22.8216 15.1179 22.7261 14.9515 22.591 14.8205C22.4558 14.6895 22.2864 14.5993 22.1022 14.5603C21.9181 14.5213 21.7267 14.535 21.55 14.6C17.96 15.922 13.875 15.334 11.117 12.575C8.34999 9.808 7.78799 5.744 9.27199 2.406Z" fill="#426A73"/>
</svg>
